<svg width="132" height="32" viewBox="0 0 132 32" fill="none" xmlns="http://www.w3.org/2000/svg">
<path d="M23.8143 17.176C24.3049 17.176 24.6569 17.2827 24.8703 17.496C25.1049 17.7093 25.2223 17.9867 25.2223 18.328C25.2223 18.8827 25.0516 19.3733 24.7103 19.8C24.3903 20.2267 23.8783 20.4507 23.1743 20.472C21.4676 20.5147 19.9529 20.3867 18.6303 20.088C17.1156 23.2667 15.2809 25.912 13.1263 28.024C10.9929 30.1147 8.84892 31.16 6.69425 31.16C4.47559 31.16 2.82225 29.8693 1.73425 27.288C0.646252 24.7067 0.102252 21.2187 0.102252 16.824C0.102252 13.0693 0.368919 9.69867 0.902252 6.712C1.09425 5.60266 1.36092 4.856 1.70225 4.472C2.06492 4.06667 2.67292 3.864 3.52625 3.864C4.93425 3.864 5.63825 4.472 5.63825 5.688C5.63825 5.816 5.61692 6.05067 5.57425 6.392C4.93425 10.232 4.61425 13.7093 4.61425 16.824C4.61425 20.088 4.88092 22.5733 5.41425 24.28C5.96892 25.9653 6.79025 26.808 7.87825 26.808C8.98759 26.808 10.1929 26.04 11.4943 24.504C12.7956 22.968 13.9903 21.0373 15.0783 18.712C13.7769 17.9013 12.7956 16.856 12.1343 15.576C11.4729 14.2747 11.1423 12.7813 11.1423 11.096C11.1423 9.41067 11.3983 7.992 11.9103 6.84C12.4436 5.66666 13.1583 4.792 14.0543 4.216C14.9716 3.64 15.9849 3.352 17.0943 3.352C18.4596 3.352 19.5369 3.84267 20.3263 4.824C21.1369 5.80533 21.5423 7.14933 21.5423 8.856C21.5423 11.3093 21.0089 13.9867 19.9423 16.888C21.0729 17.08 22.3636 17.176 23.8143 17.176ZM14.3743 10.872C14.3743 12.9627 15.0463 14.5093 16.3903 15.512C17.2223 13.1227 17.6383 11.1493 17.6383 9.592C17.6383 8.696 17.5209 8.04533 17.2863 7.64C17.0516 7.21333 16.7316 7 16.3263 7C15.7503 7 15.2809 7.34133 14.9183 8.024C14.5556 8.68533 14.3743 9.63467 14.3743 10.872ZM26.9405 13.976C26.0445 13.976 25.3725 13.7733 24.9245 13.368C24.4765 12.9413 24.2525 12.3547 24.2525 11.608C24.2525 10.8613 24.5405 10.2427 25.1165 9.752C25.7138 9.24 26.4498 8.984 27.3245 8.984C28.1138 8.984 28.7538 9.176 29.2445 9.56C29.7352 9.944 29.9805 10.488 29.9805 11.192C29.9805 12.0453 29.7032 12.728 29.1485 13.24C28.5938 13.7307 27.8578 13.976 26.9405 13.976ZM26.6845 31.16C25.2978 31.16 24.2845 30.6693 23.6445 29.688C23.0258 28.7067 22.7165 27.4053 22.7165 25.784C22.7165 24.824 22.8338 23.5973 23.0685 22.104C23.3245 20.5893 23.6445 19.1813 24.0285 17.88C24.2205 17.1973 24.4765 16.728 24.7965 16.472C25.1165 16.216 25.6285 16.088 26.3325 16.088C27.4205 16.088 27.9645 16.4507 27.9645 17.176C27.9645 17.7093 27.7618 18.9467 27.3565 20.888C26.8445 23.2347 26.5885 24.824 26.5885 25.656C26.5885 26.296 26.6738 26.7867 26.8445 27.128C27.0152 27.4693 27.3032 27.64 27.7085 27.64C28.0925 27.64 28.5725 27.3733 29.1485 26.84C29.7245 26.3067 30.4925 25.464 31.4525 24.312C31.7085 24.0133 31.9965 23.864 32.3165 23.864C32.5938 23.864 32.8072 23.992 32.9565 24.248C33.1272 24.504 33.2125 24.856 33.2125 25.304C33.2125 26.1573 33.0098 26.8187 32.6045 27.288C30.4925 29.8693 28.5192 31.16 26.6845 31.16ZM33.5355 31.16C32.7248 31.16 32.1488 30.7333 31.8075 29.88C31.4875 29.0267 31.3275 27.6613 31.3275 25.784C31.3275 23.0107 31.7222 20.376 32.5115 17.88C32.7035 17.2613 33.0128 16.8133 33.4395 16.536C33.8875 16.2373 34.5062 16.088 35.2955 16.088C35.7222 16.088 36.0208 16.1413 36.1915 16.248C36.3622 16.3547 36.4475 16.5573 36.4475 16.856C36.4475 17.1973 36.2875 17.9653 35.9675 19.16C35.7542 20.0133 35.5835 20.76 35.4555 21.4C35.3275 22.04 35.2208 22.8293 35.1355 23.768C35.8395 21.9333 36.6288 20.44 37.5035 19.288C38.3782 18.136 39.2315 17.3147 40.0635 16.824C40.9168 16.3333 41.6955 16.088 42.3995 16.088C43.7862 16.088 44.4795 16.7813 44.4795 18.168C44.4795 18.4453 44.3835 19.1173 44.1915 20.184C44.0208 21.0373 43.9355 21.5707 43.9355 21.784C43.9355 22.5307 44.2022 22.904 44.7355 22.904C45.3328 22.904 46.1008 22.4347 47.0395 21.496C47.3168 21.2187 47.6048 21.08 47.9035 21.08C48.1808 21.08 48.3942 21.208 48.5435 21.464C48.7142 21.6987 48.7995 22.0187 48.7995 22.424C48.7995 23.2133 48.5862 23.832 48.1595 24.28C47.5622 24.8987 46.8582 25.432 46.0475 25.88C45.2582 26.3067 44.4155 26.52 43.5195 26.52C42.3888 26.52 41.5248 26.232 40.9275 25.656C40.3515 25.08 40.0635 24.3013 40.0635 23.32C40.0635 23 40.0955 22.68 40.1595 22.36C40.2022 21.9333 40.2235 21.6453 40.2235 21.496C40.2235 21.1547 40.1062 20.984 39.8715 20.984C39.5515 20.984 39.1248 21.3467 38.5915 22.072C38.0795 22.776 37.5675 23.7147 37.0555 24.888C36.5435 26.0613 36.1275 27.2987 35.8075 28.6C35.5728 29.6027 35.2955 30.2853 34.9755 30.648C34.6768 30.9893 34.1968 31.16 33.5355 31.16ZM50.402 31.16C49.0793 31.16 48.0233 30.68 47.234 29.72C46.4447 28.76 46.05 27.5013 46.05 25.944C46.05 24.2373 46.4447 22.6267 47.234 21.112C48.0233 19.576 49.0687 18.3493 50.37 17.432C51.6927 16.4933 53.09 16.024 54.562 16.024C55.0313 16.024 55.3407 16.12 55.49 16.312C55.6607 16.4827 55.7993 16.8027 55.906 17.272C56.354 17.1867 56.8233 17.144 57.314 17.144C58.3593 17.144 58.882 17.5173 58.882 18.264C58.882 18.712 58.722 19.7787 58.402 21.464C57.9113 23.9173 57.666 25.624 57.666 26.584C57.666 26.904 57.7407 27.16 57.89 27.352C58.0607 27.544 58.274 27.64 58.53 27.64C58.9353 27.64 59.426 27.384 60.002 26.872C60.578 26.3387 61.3567 25.4853 62.338 24.312C62.594 24.0133 62.882 23.864 63.202 23.864C63.4793 23.864 63.6927 23.992 63.842 24.248C64.0127 24.504 64.098 24.856 64.098 25.304C64.098 26.1573 63.8953 26.8187 63.49 27.288C62.6153 28.376 61.6873 29.2933 60.706 30.04C59.7247 30.7867 58.7753 31.16 57.858 31.16C57.154 31.16 56.5033 30.9253 55.906 30.456C55.33 29.9653 54.8927 29.304 54.594 28.472C53.4847 30.264 52.0873 31.16 50.402 31.16ZM51.554 27.928C52.0233 27.928 52.4713 27.6507 52.898 27.096C53.3247 26.5413 53.634 25.8053 53.826 24.888L55.01 19C54.114 19.0213 53.282 19.3627 52.514 20.024C51.7673 20.664 51.17 21.5173 50.722 22.584C50.274 23.6507 50.05 24.7813 50.05 25.976C50.05 26.6373 50.178 27.128 50.434 27.448C50.7113 27.768 51.0847 27.928 51.554 27.928ZM68.4732 31.16C66.3399 31.16 64.7826 30.3387 63.8012 28.696C62.8412 27.0533 62.3612 24.6747 62.3612 21.56C62.3612 18.808 62.7026 15.8213 63.3852 12.6C64.0679 9.35733 65.0599 6.60533 66.3612 4.344C67.6839 2.06133 69.2519 0.919998 71.0653 0.919998C72.0466 0.919998 72.8359 1.34667 73.4333 2.2C74.0306 3.032 74.3293 4.12 74.3293 5.464C74.3293 7.21333 73.9986 8.952 73.3373 10.68C72.6759 12.408 71.5773 14.2213 70.0413 16.12C71.0866 16.2053 71.9933 16.5573 72.7613 17.176C73.5506 17.7947 74.1479 18.5947 74.5533 19.576C74.9799 20.5573 75.1933 21.624 75.1933 22.776C75.1933 24.376 74.8733 25.816 74.2333 27.096C73.6146 28.376 72.7933 29.3787 71.7692 30.104C70.7453 30.808 69.6466 31.16 68.4732 31.16ZM66.5852 18.296C67.9933 15.7147 69.1133 13.4427 69.9453 11.48C70.7986 9.496 71.2253 7.736 71.2253 6.2C71.2253 5.51733 71.1399 4.99467 70.9692 4.632C70.8199 4.26933 70.6066 4.088 70.3293 4.088C69.9026 4.088 69.4333 4.728 68.9213 6.008C68.4306 7.26667 67.9719 8.984 67.5452 11.16C67.1186 13.336 66.7986 15.7147 66.5852 18.296ZM68.6012 27.704C69.3266 27.704 69.9346 27.3093 70.4253 26.52C70.9373 25.7307 71.1933 24.5787 71.1933 23.064C71.1933 21.8907 70.9799 21.0053 70.5533 20.408C70.1266 19.8107 69.6146 19.512 69.0173 19.512C68.2706 19.512 67.6413 19.896 67.1293 20.664C66.6172 21.432 66.3612 22.552 66.3612 24.024C66.3612 25.304 66.5746 26.2427 67.0012 26.84C67.4279 27.416 67.9612 27.704 68.6012 27.704ZM118.754 23.864C119.031 23.864 119.244 23.992 119.394 24.248C119.564 24.504 119.65 24.856 119.65 25.304C119.65 26.136 119.447 26.7973 119.042 27.288C118.018 28.5253 116.983 29.4853 115.938 30.168C114.892 30.8293 113.655 31.16 112.226 31.16C110.647 31.16 109.356 30.7013 108.354 29.784C107.351 28.8453 106.412 27.3947 105.537 25.432C104.897 24.024 104.364 22.9787 103.938 22.296C103.532 21.592 103.127 21.1013 102.721 20.824C102.316 20.5253 101.804 20.344 101.185 20.28L100.833 22.648C100.385 25.6987 99.5108 27.896 98.2095 29.24C96.9295 30.584 95.1588 31.256 92.8975 31.256C91.4255 31.256 90.1135 30.904 88.9615 30.2C87.8308 29.4747 87.0415 28.5573 86.5935 27.448C86.4442 27.064 86.3695 26.648 86.3695 26.2C86.3695 25.56 86.5188 25.0053 86.8175 24.536C87.1162 24.0667 87.5002 23.832 87.9695 23.832C88.2468 23.832 88.4815 23.9067 88.6735 24.056C88.8655 24.184 89.0468 24.4187 89.2175 24.76C89.8788 25.9973 90.4548 26.8613 90.9455 27.352C91.4575 27.8427 92.0868 28.088 92.8335 28.088C93.6868 28.088 94.4122 27.704 95.0095 26.936C95.6282 26.1467 96.0655 24.9413 96.3215 23.32L96.7695 20.28H96.2575C95.7668 20.28 95.3828 20.1413 95.1055 19.864C94.8282 19.5867 94.6895 19.2027 94.6895 18.712C94.6895 18.1573 94.8282 17.72 95.1055 17.4C95.4042 17.0587 95.7668 16.888 96.1935 16.888H97.2495C97.3988 15.8427 97.5055 15.1173 97.5695 14.712L98.5615 7.512C98.0068 7.448 97.4842 7.416 96.9935 7.416C95.1802 7.416 93.8042 7.736 92.8655 8.376C91.9268 8.99467 91.4575 9.89067 91.4575 11.064C91.4575 11.5973 91.5108 12.0347 91.6175 12.376C91.7455 12.696 91.9055 13.0587 92.0975 13.464C92.1828 13.6347 92.2255 13.8267 92.2255 14.04C92.2255 14.5093 92.0015 14.9253 91.5535 15.288C91.1268 15.6293 90.6468 15.8 90.1135 15.8C89.4308 15.8 88.9295 15.5013 88.6095 14.904C87.9695 13.7733 87.6495 12.5573 87.6495 11.256C87.6495 9.912 88.0122 8.68533 88.7375 7.576C89.4842 6.46667 90.6042 5.58133 92.0975 4.92C93.5908 4.23733 95.4362 3.896 97.6335 3.896C98.5935 3.896 99.4682 3.94933 100.257 4.056C101.068 4.16267 101.953 4.36533 102.913 4.664C103.959 4.984 104.481 5.58133 104.481 6.456C104.481 7.62933 103.98 8.216 102.977 8.216L101.729 16.824C104.225 16.568 106.252 15.5013 107.809 13.624C109.388 11.7253 110.7 9.15467 111.746 5.912C111.938 5.31467 112.258 4.856 112.705 4.536C113.175 4.216 113.762 4.056 114.465 4.056C115.063 4.056 115.521 4.19466 115.841 4.472C116.183 4.728 116.354 5.10133 116.354 5.592C116.354 5.74133 116.311 5.98667 116.226 6.328C115.159 9.848 113.633 12.6427 111.649 14.712C109.666 16.7813 107.5 18.1573 105.153 18.84C105.964 19.032 106.625 19.32 107.137 19.704C107.671 20.088 108.119 20.568 108.481 21.144C108.844 21.6987 109.26 22.4773 109.729 23.48C110.391 24.888 111.009 25.8907 111.585 26.488C112.161 27.064 112.833 27.352 113.601 27.352C114.284 27.352 114.935 27.128 115.553 26.68C116.172 26.2107 116.951 25.4213 117.889 24.312C118.145 24.0133 118.433 23.864 118.754 23.864ZM129.01 16.088C129.693 16.088 130.205 16.2693 130.546 16.632C130.909 16.9733 131.09 17.4853 131.09 18.168C131.09 18.7227 130.973 19.768 130.738 21.304C130.525 22.6053 130.354 23.8427 130.226 25.016C130.098 26.168 130.034 27.4587 130.034 28.888C130.034 29.6987 129.864 30.2853 129.522 30.648C129.202 30.9893 128.669 31.16 127.922 31.16C127.218 31.16 126.706 30.9787 126.386 30.616C126.066 30.2533 125.906 29.7093 125.906 28.984C125.906 28.1307 126.056 26.7227 126.354 24.76C126.61 23.0533 126.738 21.9653 126.738 21.496C126.738 21.1547 126.621 20.984 126.386 20.984C126.109 20.984 125.714 21.3467 125.202 22.072C124.69 22.776 124.178 23.7147 123.666 24.888C123.154 26.0613 122.738 27.2987 122.418 28.6C122.184 29.6027 121.906 30.2853 121.586 30.648C121.288 30.9893 120.808 31.16 120.146 31.16C119.485 31.16 118.994 30.9253 118.674 30.456C118.376 29.9653 118.173 29.2187 118.066 28.216C117.96 27.2133 117.906 25.7413 117.906 23.8C117.906 20.5147 118.237 17.0907 118.898 13.528C119.581 9.96533 120.573 6.97867 121.874 4.568C123.197 2.136 124.776 0.919998 126.61 0.919998C127.592 0.919998 128.381 1.34667 128.978 2.2C129.597 3.032 129.906 4.12 129.906 5.464C129.906 7.61867 129.277 9.85867 128.018 12.184C126.76 14.488 124.712 17.1867 121.874 20.28C121.81 21.3893 121.778 22.5307 121.778 23.704C122.482 21.8907 123.261 20.4187 124.114 19.288C124.989 18.136 125.842 17.3147 126.674 16.824C127.528 16.3333 128.306 16.088 129.01 16.088ZM125.938 4.088C125.554 4.088 125.128 4.64267 124.658 5.752C124.189 6.84 123.73 8.32267 123.282 10.2C122.856 12.056 122.504 14.0827 122.226 16.28C123.549 14.7227 124.637 13.0267 125.49 11.192C126.365 9.35733 126.802 7.69333 126.802 6.2C126.802 5.51733 126.728 4.99467 126.578 4.632C126.429 4.26933 126.216 4.088 125.938 4.088Z" fill="white"/>
</svg>
