<?xml version="1.0" ?><svg baseProfile="tiny" id="Layer_1" overflow="scroll" version="1.1" viewBox="0 0 24 24" xml:space="preserve" xmlns="http://www.w3.org/2000/svg" xmlns:xlink="http://www.w3.org/1999/xlink"><path d="M22.2138672,22.75V20c0-0.4140625-0.3359375-0.75-0.75-0.75s-0.75,0.3359375-0.75,0.75v2H3.2617188v-2  c0-0.4140625-0.3359375-0.75-0.75-0.75s-0.75,0.3359375-0.75,0.75v2.75c0,0.4140625,0.3359375,0.75,0.75,0.75h18.9521484  C21.8779297,23.5,22.2138672,23.1640625,22.2138672,22.75z" fill="#1D1D1D"/><path d="M22.2382813,5c0-0.1972656-0.078125-0.3867188-0.2167969-0.5273438l-3.7099609-3.75  C18.1708984,0.5800781,17.9785156,0.5,17.7783203,0.5H2.5117188c-0.4140625,0-0.75,0.3359375-0.75,0.75V7.5  c0,0.4140625,0.3359375,0.75,0.75,0.75s0.75-0.3359375,0.75-0.75V2h12.9765625v4c0,0.4140625,0.3359375,0.75,0.75,0.75h3.75V7.5  c0,0.4140625,0.3359375,0.75,0.75,0.75s0.75-0.3359375,0.75-0.75V5z M17.7382813,2.2763672L20.6802979,5.25h-2.9420166V2.2763672z" fill="#1D1D1D"/><path d="M3.6757813,17v-2.4560547h2.6894531c0.4140625,0,0.75-0.3359375,0.75-0.75v-3.2949219  c0-0.4140625-0.3359375-0.75-0.75-0.75c-0.0064087,0-0.0117188,0.003479-0.0180664,0.0036621  C6.3425293,9.7526245,6.3386841,9.75,6.3339844,9.75H2.9257813c-0.4140625,0-0.75,0.3359375-0.75,0.75V17  c0,0.4140625,0.3359375,0.75,0.75,0.75S3.6757813,17.4140625,3.6757813,17z M5.6152344,11.25v1.7939453H3.6757813V11.25H5.6152344z" fill="#1D1D1D"/><path d="M10.2431641,9.7246094c-0.4140625,0-0.75,0.3359375-0.75,0.75v6.4833984  c0,0.4140625,0.3359375,0.75,0.75,0.75s0.75-0.3359375,0.75-0.75v-2.3447266h2.1367188v2.3623047  c0,0.4140625,0.3359375,0.75,0.75,0.75s0.75-0.3359375,0.75-0.75v-6.4511719c0-0.4140625-0.3359375-0.75-0.75-0.75  s-0.75,0.3359375-0.75,0.75v2.5888672h-2.1367188v-2.6386719C10.9931641,10.0605469,10.6572266,9.7246094,10.2431641,9.7246094z" fill="#1D1D1D"/><path d="M18.3847656,17v-2.4560547h2.6894531c0.4140625,0,0.75-0.3359375,0.75-0.75v-3.2949219  c0-0.4140625-0.3359375-0.75-0.75-0.75c-0.0065918,0-0.0120239,0.00354-0.0185547,0.0037231  C21.0508423,9.7526245,21.046875,9.75,21.0419922,9.75h-3.4072266c-0.4140625,0-0.75,0.3359375-0.75,0.75V17  c0,0.4140625,0.3359375,0.75,0.75,0.75S18.3847656,17.4140625,18.3847656,17z M20.3242188,11.25v1.7939453h-1.9394531V11.25  H20.3242188z" fill="#1D1D1D"/></svg>